#!OML:ASF E:\acrobat2\Project_11_07_03\Capture day 1\Session 1\Acrobat.ASF
:FULLY-SPECIFIED
:DEGREES
649
root 12.9471 20.4789 9.85021 3.68396 0.680962 0.311697
lowerback -7.60609 -0.00845695 -1.09464
upperback 0.939107 0.170683 -1.51601
thorax 5.24903 0.0753383 -0.940447
lowerneck 0.324679 -5.67192 -2.96824
upperneck 5.79944 -7.88889 6.4033
head 2.20414 -3.87183 2.40873
rclavicle -5.24295e-015 -1.07344e-014
rhumerus -37.4991 -11.4412 -80.7546
rradius 26.5097
rwrist 6.9829
rhand -4.99284 -38.9452
rfingers 7.12502
rthumb 20.8003 -67.8503
lclavicle -5.24295e-015 -1.07344e-014
lhumerus -29.5832 -3.61021 83.0683
lradius 21.8888
lwrist 5.25551
lhand -3.42075 -13.3637
lfingers 7.12502
lthumb 22.3101 15.3683
rfemur -8.24913 10.1003 16.9771
rtibia 24.6235
rfoot -36.3688 -16.2407
rtoes 4.46121
lfemur -17.9646 -3.55333 -14.6292
ltibia 38.2773
lfoot -36.6773 -12.0392
ltoes -1.21022
650
root 12.9462 20.479 9.85744 3.654 0.725898 0.335341
lowerback -7.60481 0.0161969 -1.15672
upperback 0.933845 0.209495 -1.52022
thorax 5.24296 0.0927716 -0.90523
lowerneck 0.308332 -5.64895 -2.93756
upperneck 5.85184 -7.85857 6.3622
head 2.219 -3.85578 2.38963
rclavicle -2.11209e-015 -6.36111e-015
rhumerus -37.5934 -11.4435 -80.7572
rradius 26.2927
rwrist 7.0768
rhand -4.98725 -39.0368
rfingers 7.12502
rthumb 20.8057 -67.9413
lclavicle -2.11209e-015 -6.36111e-015
lhumerus -29.4951 -3.61028 83.0528
lradius 21.868
lwrist 5.26559
lhand -3.42587 -13.3739
lfingers 7.12502
lthumb 22.3052 15.3588
rfemur -8.15496 10.1209 16.978
rtibia 24.5973
rfoot -36.3574 -16.3109
rtoes 4.3967
lfemur -17.9152 -3.60933 -14.6498
ltibia 38.2758
lfoot -36.5352 -12.0719
ltoes -0.775638
651
root 12.945 20.479 9.86544 3.60719 0.758389 0.33563
lowerback -7.5988 0.0505491 -1.19013
upperback 0.937938 0.258671 -1.52535
thorax 5.24411 0.11616 -0.885892
lowerneck 0.264991 -5.62326 -2.88704
upperneck 5.91181 -7.82448 6.31306
head 2.23961 -3.83699 2.36363
rclavicle -3.90115e-015 1.86858e-014
rhumerus -37.6705 -11.4989 -80.7494
rradius 26.0644
rwrist 7.26323
rhand -4.89586 -39.0675
rfingers 7.12502
rthumb 20.8935 -67.9624
lclavicle -3.90115e-015 1.86858e-014
lhumerus -29.4089 -3.58348 83.0172
lradius 21.8654
lwrist 5.25634
lhand -3.44543 -13.3974
lfingers 7.12502
lthumb 22.2864 15.3375
rfemur -8.0269 10.1477 17.0101
rtibia 24.5429
rfoot -36.3321 -16.3602
rtoes 4.41355
lfemur -17.8535 -3.66066 -14.6438
ltibia 38.2909
lfoot -36.368 -12.1265
ltoes -0.197885
652
root 12.9436 20.4791 9.87463 3.543 0.7821 0.310498
lowerback -7.58723 0.0939579 -1.18884
upperback 0.946395 0.316747 -1.53282
thorax 5.24687 0.144989 -0.887437
lowerneck 0.209346 -5.59325 -2.81599
upperneck 5.97873 -7.78478 6.25754
head 2.26313 -3.81478 2.33168
rclavicle -2.55935e-015 -1.59028e-015
rhumerus -37.7479 -11.6225 -80.7245
rradius 25.8285
rwrist 7.56025
rhand -4.74086 -39.0326
rfingers 7.12502
rthumb 21.0424 -67.9109
lclavicle -2.55935e-015 -1.59028e-015
lhumerus -29.3354 -3.54051 82.965
lradius 21.8691
lwrist 5.24034
lhand -3.4915 -13.4541
lfingers 7.12502
lthumb 22.2422 15.286
rfemur -7.86152 10.1827 17.0755
rtibia 24.4546
rfoot -36.2907 -16.4058
rtoes 4.49227
lfemur -17.7827 -3.71035 -14.6111
ltibia 38.326
lfoot -36.1914 -12.1654
ltoes 0.371687
653
root 12.9418 20.4795 9.88475 3.46732 0.796509 0.256217
lowerback -7.56553 0.146516 -1.15205
upperback 0.950186 0.383314 -1.53913
thorax 5.23928 0.179063 -0.906723
lowerneck 0.163503 -5.55812 -2.72799
upperneck 6.04538 -7.73818 6.19493
head 2.28331 -3.78909 2.29491
rclavicle -7.55382e-015 1.98785e-015
rhumerus -37.8409 -11.788 -80.6884
rradius 25.5958
rwrist 7.93186
rhand -4.58618 -38.9465
rfingers 7.12502
rthumb 21.191 -67.8083
lclavicle -7.55382e-015 1.98785e-015
lhumerus -29.2883 -3.48115 82.9012
lradius 21.8766
lwrist 5.22224
lhand -3.56065 -13.547
lfingers 7.12502
lthumb 22.1758 15.2011
rfemur -7.67217 10.2431 17.1778
rtibia 24.3378
rfoot -36.2455 -16.4653
rtoes 4.64604
lfemur -17.7088 -3.75779 -14.5471
ltibia 38.3778
lfoot -36.016 -12.1704
ltoes 0.860769
654
root 12.9396 20.4807 9.89519 3.39174 0.799806 0.18246
lowerback -7.53323 0.206346 -1.0924
upperback 0.940329 0.4569 -1.54445
thorax 5.21171 0.217305 -0.937004
lowerneck 0.143727 -5.51428 -2.62092
upperneck 6.10514 -7.67928 6.11843
head 2.29433 -3.75768 2.25132
rclavicle -1.49089e-016 -1.98785e-015
rhumerus -37.9509 -11.9521 -80.6559
rradius 25.3683
rwrist 8.31453
rhand -4.46692 -38.8688
rfingers 7.12502
rthumb 21.3055 -67.7177
lclavicle -1.49089e-016 -1.98785e-015
lhumerus -29.2799 -3.40044 82.8274
lradius 21.9001
lwrist 5.20592
lhand -3.63864 -13.6584
lfingers 7.12502
lthumb 22.1009 15.0985
rfemur -7.48196 10.3519 17.3043
rtibia 24.2046
rfoot -36.2214 -16.5387
rtoes 4.9505
lfemur -17.6419 -3.78962 -14.4617
ltibia 38.4381
lfoot -35.842 -12.1286
ltoes 1.16903
